#!OML:ASF E:\Mandelcareful walks\Project 1\Capture day 1\Session 1\Subject1.ASF
:FULLY-SPECIFIED
:DEGREES
224
root -15.7378 14.8539 -1.6741 -341.332 62.4507 -365.906
lowerback 29.9587 2.78735 -4.57927
upperback 7.29339 2.26425 -3.61066
thorax -8.22742 1.30768 -2.26122
lowerneck -29.251 11.96 4.83497
upperneck 15.2724 19.41 -19.0128
head 12.4872 6.85565 -3.90223
rclavicle 5.1684e-014 -1.98785e-014
rhumerus -19.3776 -31.2628 -81.2204
rradius 14.3706
rwrist -21.3388
rhand 13.6077 -33.6938
rfingers 7.12502
rthumb 38.5395 -59.3441
lclavicle 5.1684e-014 -1.98785e-014
lhumerus 12.092 -85.5632 89.2443
lradius 45.6579
lwrist -6.85255
lhand 2.24263 -7.97707
lfingers 7.12502
lthumb 27.7366 19.997
rfemur -30.4881 -10.5963 -0.569456
rtibia 44.1135
rfoot -18.8567 -16.7171
rtoes -23.2614
lfemur -64.1875 6.06925 -19.2333
ltibia 70.6282
lfoot -24.7691 5.57471
ltoes -4.78644
225
root -15.6442 14.8949 -1.69382 -341.857 62.4293 -366.497
lowerback 29.7954 2.85181 -4.59045
upperback 7.30489 2.35717 -3.56038
thorax -8.13835 1.34985 -2.22224
lowerneck -29.3779 11.8153 4.70905
upperneck 15.4403 19.2209 -18.7778
head 12.5009 6.76944 -3.84231
rclavicle 4.77083e-014 -2.78299e-015
rhumerus -19.242 -31.4999 -81.286
rradius 14.3542
rwrist -20.9972
rhand 13.7028 -33.5595
rfingers 7.12502
rthumb 38.6292 -59.1848
lclavicle 4.77083e-014 -2.78299e-015
lhumerus 17.5575 -86.5049 83.313
lradius 46.0544
lwrist -5.06945
lhand -0.034356 -7.66385
lfingers 7.12502
lthumb 25.5575 20.6416
rfemur -30.8592 -10.575 -0.0393613
rtibia 44.1002
rfoot -18.7252 -16.8091
rtoes -22.1193
lfemur -63.6324 6.17017 -19.1475
ltibia 70.3035
lfoot -25.3784 5.06682
ltoes -2.53148
226
root -15.5563 14.9361 -1.71051 -342.436 62.3568 -367.042
lowerback 29.8653 2.91353 -4.59273
upperback 7.25858 2.42509 -3.53672
thorax -8.22572 1.3803 -2.22452
lowerneck -29.6409 11.651 4.49334
upperneck 15.8146 19.0145 -18.3145
head 12.574 6.671 -3.68857
rclavicle -2.38542e-014 3.10104e-014
rhumerus -19.1979 -29.9635 -81.7287
rradius 14.7559
rwrist -22.3128
rhand 14.2787 -33.0925
rfingers 7.12502
rthumb 39.1723 -58.563
lclavicle -2.38542e-014 3.10104e-014
lhumerus 16.0623 -86.4624 84.528
lradius 46.4206
lwrist -6.39964
lhand 0.477172 -7.5557
lfingers 7.12502
lthumb 26.0473 20.6786
rfemur -31.1338 -10.4771 0.401368
rtibia 44.1174
rfoot -18.4687 -16.8162
rtoes -20.5195
lfemur -62.9642 6.33744 -19.0776
ltibia 69.9353
lfoot -25.3243 4.82969
ltoes -2.94488
227
root -15.4734 14.973 -1.72639 -342.629 62.3296 -367.214
lowerback 29.9193 2.96342 -4.72849
upperback 7.14712 2.43346 -3.51613
thorax -8.38424 1.38439 -2.13465
lowerneck -29.8613 11.474 4.27647
upperneck 16.2331 18.7824 -17.7963
head 12.6475 6.56791 -3.52164
rclavicle 3.49861e-014 8.5875e-014
rhumerus -19.3716 -26.0044 -82.6242
rradius 15.8789
rwrist -25.9204
rhand 14.2241 -33.123
rfingers 7.12502
rthumb 39.1208 -58.6083
lclavicle 3.49861e-014 8.5875e-014
lhumerus 14.0015 -86.7731 86.2768
lradius 46.5848
lwrist -7.22055
lhand -1.9664 -8.13404
lfingers 7.12502
lthumb 23.7056 20.4241
rfemur -31.4904 -10.551 0.645756
rtibia 44.2251
rfoot -17.8205 -16.9425
rtoes -20.5786
lfemur -62.4119 6.44327 -19.2149
ltibia 69.554
lfoot -25.4219 4.5961
ltoes -2.6696
228
root -15.3965 15.0076 -1.7393 -342.382 62.3075 -367.054
lowerback 29.6637 3.0042 -5.00947
upperback 7.08929 2.41438 -3.51329
thorax -8.33631 1.37815 -1.95271
lowerneck -29.9516 11.2951 4.08068
upperneck 16.3844 18.5202 -17.4055
head 12.6125 6.46903 -3.41039
rclavicle 5.725e-014 -5.48646e-014
rhumerus -19.2327 -25.0879 -82.8632
rradius 15.9428
rwrist -26.4574
rhand 13.994 -33.3119
rfingers 7.12502
rthumb 38.9039 -58.8594
lclavicle 5.725e-014 -5.48646e-014
lhumerus 10.8264 -86.4414 89.3281
lradius 47.1171
lwrist -5.04995
lhand -0.533468 -8.02803
lfingers 7.12502
lthumb 25.0793 20.3451
rfemur -32.0226 -10.7332 0.721066
rtibia 44.4184
rfoot -17.327 -16.6216
rtoes -21.1658
lfemur -62.048 6.5421 -19.55
ltibia 69.1604
lfoot -26.082 4.14753
ltoes 0.33611
229
root -15.3269 15.0415 -1.74047 -342.168 62.1386 -366.975
lowerback 29.2179 3.09515 -5.44363
upperback 7.16509 2.44097 -3.56327
thorax -8.04592 1.39565 -1.74347
lowerneck -30.4535 11.2013 4.02387
upperneck 16.5482 18.3143 -17.0038
head 12.6754 6.37919 -3.29237
rclavicle 0 1.03368e-014
rhumerus -18.678 -25.5314 -83.1112
rradius 15.5888
rwrist -25.774
rhand 13.9543 -32.9647
rfingers 7.12502
rthumb 38.8665 -58.5229
lclavicle 0 1.03368e-014
lhumerus 21.1417 -87.1174 78.5205
lradius 47.2643
lwrist -5.08148
lhand -4.64537 -8.43336
lfingers 7.12502
lthumb 21.1341 20.4348
rfemur -32.7085 -10.5978 0.839679
rtibia 44.6552
rfoot -17.3174 -15.9878
rtoes -20.6038
lfemur -61.7088 6.8 -19.8144
ltibia 68.7367
lfoot -26.4992 3.82438
ltoes 1.78279
230
root -15.2585 15.0761 -1.73134 -342.197 61.8787 -367.094
lowerback 28.7873 3.19756 -5.92116
upperback 7.29759 2.4791 -3.62686
thorax -7.69882 1.41779 -1.52752
lowerneck -31.1531 11.2061 4.12842
upperneck 16.715 18.1836 -16.6357
head 12.8038 6.31733 -3.18869
rclavicle -1.74931e-014 -2.38542e-014
rhumerus -18.2082 -24.9805 -83.678
rradius 15.7788
rwrist -26.1017
rhand 13.6644 -33.1638
rfingers 7.12502
rthumb 38.593 -58.7992
lclavicle -1.74931e-014 -2.38542e-014
lhumerus 30.9178 -87.1287 68.2376
lradius 47.4647
lwrist -4.91083
lhand -5.61928 -9.00309
lfingers 7.12502
lthumb 20.1983 19.9668
rfemur -33.4071 -10.1637 1.05812
rtibia 44.9167
rfoot -17.3209 -15.7186
rtoes -20.1831
lfemur -61.2449 7.13514 -19.9271
ltibia 68.2912
lfoot -26.6698 3.68401
ltoes 1.3267
231
root -15.1904 15.1149 -1.7282 -342.284 61.7547 -367.213
lowerback 28.5026 3.20737 -6.10484
upperback 7.34692 2.46593 -3.67367
thorax -7.50805 1.41186 -1.45356
lowerneck -31.3817 11.1386 4.1726
upperneck 16.6519 17.9675 -16.3764
head 12.7583 6.24833 -3.14491
rclavicle 5.32743e-014 1.66979e-014
rhumerus -17.954 -24.2796 -84.0917
rradius 16.0206
rwrist -26.5775
rhand 13.3858 -34.0101
rfingers 7.12502
rthumb 38.3301 -59.7188
lclavicle 5.32743e-014 1.66979e-014
lhumerus 27.8412 -86.658 70.9205
lradius 47.5012
lwrist -8.93781
lhand -6.49402 -9.64029
lfingers 7.12502
lthumb 19.3574 19.4162
rfemur -34.0233 -9.96363 1.3142
rtibia 45.1951
rfoot -16.8946 -15.4766
rtoes -19.9715
lfemur -60.729 7.24812 -20.0036
ltibia 67.8488
lfoot -26.8285 3.71535
ltoes 0.366276
232
root -15.1285 15.1497 -1.72873 -342.215 61.7126 -367.152
lowerback 28.3537 3.19129 -6.19419
upperback 7.26889 2.42193 -3.69938
thorax -7.52498 1.39106 -1.41191
lowerneck -31.2485 11.0545 4.13521
upperneck 16.5347 17.7496 -16.0896
head 12.6171 6.20203 -3.08676
rclavicle 4.77083e-014 3.10104e-014
rhumerus -18.0849 -21.6793 -84.719
rradius 16.9175
rwrist -28.9717
rhand 13.1407 -34.5098
rfingers 7.12502
rthumb 38.0987 -60.2821
lclavicle 4.77083e-014 3.10104e-014
lhumerus 28.502 -86.9054 69.9668
lradius 47.9634
lwrist -6.99786
lhand -7.58026 -9.93737
lfingers 7.12502
lthumb 18.3127 19.2206
rfemur -34.6522 -9.9606 1.51468
rtibia 45.543
rfoot -16.4006 -15.2128
rtoes -19.3461
lfemur -60.2734 7.18886 -20.1283
ltibia 67.4506
lfoot -27.0028 3.88919
ltoes -0.877653
233
root -15.0709 15.1759 -1.7235 -342.173 61.6548 -367.115
lowerback 28.1569 3.15967 -6.28112
upperback 7.20556 2.36545 -3.71911
thorax -7.50165 1.36393 -1.35759
lowerneck -30.8813 11.139 4.10358
upperneck 16.2161 17.7366 -15.8311
head 12.3841 6.27021 -2.99612
rclavicle 7.23576e-014 -1.19271e-013
rhumerus -18.3378 -18.0421 -85.5984
rradius 18.3856
rwrist -32.6287
rhand 11.629 -35.3498
rfingers 7.12502
rthumb 36.6697 -61.499
lclavicle 7.23576e-014 -1.19271e-013
lhumerus 30.7668 -87.1256 67.393
lradius 48.3686
lwrist -5.09389
lhand -8.08561 -11.377
lfingers 7.12502
lthumb 17.8265 17.826
rfemur -35.3222 -9.91254 1.72619
rtibia 46.0152
rfoot -16.1124 -15.0131
rtoes -18.7678
lfemur -59.8331 7.14462 -20.1989
ltibia 67.0816
lfoot -27.0993 4.0604
ltoes -1.77349
234
root -15.0154 15.2021 -1.71677 -342.238 61.6407 -367.185
lowerback 27.972 3.07349 -6.23902
upperback 7.17139 2.2797 -3.71347
thorax -7.44774 1.32134 -1.33768
lowerneck -30.3439 11.3011 3.91792
upperneck 15.7078 17.8647 -15.5717
head 12.0514 6.41564 -2.85556
rclavicle -8.74653e-015 4.13472e-014
rhumerus -18.4513 -15.2024 -86.3231
rradius 19.686
rwrist -35.8116
rhand 8.984 -36.8192
rfingers 7.12502
rthumb 34.1621 -63.5669
lclavicle -8.74653e-015 4.13472e-014
lhumerus 30.3166 -87.0293 67.6097
lradius 48.6596
lwrist -5.35333
lhand -8.4116 -13.0365
lfingers 7.12502
lthumb 17.5128 16.1947
rfemur -36.018 -9.90273 2.02242
rtibia 46.5879
rfoot -15.7384 -14.9985
rtoes -18.7136
lfemur -59.3663 7.03725 -20.1685
ltibia 66.6907
lfoot -27.05 4.14666
ltoes -1.72726
